<?xml version="1.0" encoding="UTF-8" standalone="no"?>
<!-- Created with Inkscape (http://www.inkscape.org/) -->

<svg
   xmlns:dc="http://purl.org/dc/elements/1.1/"
   xmlns:cc="http://creativecommons.org/ns#"
   xmlns:rdf="http://www.w3.org/1999/02/22-rdf-syntax-ns#"
   xmlns:svg="http://www.w3.org/2000/svg"
   xmlns="http://www.w3.org/2000/svg"
   xmlns:xlink="http://www.w3.org/1999/xlink"
   xmlns:sodipodi="http://sodipodi.sourceforge.net/DTD/sodipodi-0.dtd"
   xmlns:inkscape="http://www.inkscape.org/namespaces/inkscape"
   width="12in"
   height="9in"
   viewBox="0 0 304.8 228.60001"
   version="1.1"
   id="svg8"
   inkscape:version="0.92.1 r15371"
   sodipodi:docname="SlideMaster.svg"
   inkscape:export-filename="C:\Users\mmtobias\Documents\GitHub\OpenSourceCartography\Talk\Slides\01_TitleSlide.png"
   inkscape:export-xdpi="100"
   inkscape:export-ydpi="100">
  <defs
     id="defs2">
    <linearGradient
       inkscape:collect="always"
       id="linearGradient4591">
      <stop
         style="stop-color:#d7eef4;stop-opacity:1;"
         offset="0"
         id="stop4587" />
      <stop
         style="stop-color:#d7eef4;stop-opacity:0;"
         offset="1"
         id="stop4589" />
    </linearGradient>
    <linearGradient
       inkscape:collect="always"
       xlink:href="#linearGradient4591"
       id="linearGradient4593"
       x1="369.11392"
       y1="812.96204"
       x2="369.11392"
       y2="739.11395"
       gradientUnits="userSpaceOnUse"
       gradientTransform="matrix(0.26458333,0,0,0.26458333,0,-2.1933333e-6)" />
  </defs>
  <sodipodi:namedview
     id="base"
     pagecolor="#ffffff"
     bordercolor="#666666"
     borderopacity="1.0"
     inkscape:pageopacity="1"
     inkscape:pageshadow="2"
     inkscape:zoom="0.73148148"
     inkscape:cx="576"
     inkscape:cy="432"
     inkscape:document-units="mm"
     inkscape:current-layer="layer3"
     showgrid="false"
     units="in"
     inkscape:pagecheckerboard="false" />
  <metadata
     id="metadata5">
    <rdf:RDF>
      <cc:Work
         rdf:about="">
        <dc:format>image/svg+xml</dc:format>
        <dc:type
           rdf:resource="http://purl.org/dc/dcmitype/StillImage" />
        <dc:title></dc:title>
      </cc:Work>
    </rdf:RDF>
  </metadata>
  <g
     inkscape:groupmode="layer"
     id="layer3"
     inkscape:label="Dark Banner"
     style="display:none">
    <path
       style="opacity:1;fill:url(#linearGradient4593);fill-opacity:1;stroke:none;stroke-width:0.70555562;stroke-miterlimit:4;stroke-dasharray:none;stroke-dashoffset:0"
       d="m 0,195.85862 v 8.13903 8.13787 8.13903 8.13788 h 304.8 v -8.13788 -8.13903 -8.13787 -8.13903 z"
       id="rect4551"
       inkscape:connector-curvature="0" />
    <g
       style="display:inline"
       transform="translate(28.575013,-72.232557)"
       id="g4601">
      <text
         xml:space="preserve"
         style="font-style:normal;font-variant:normal;font-weight:normal;font-stretch:normal;font-size:6.3499999px;line-height:1.25;font-family:'Century Gothic';-inkscape-font-specification:'Century Gothic, Normal';font-variant-ligatures:normal;font-variant-caps:normal;font-variant-numeric:normal;font-feature-settings:normal;text-align:start;letter-spacing:0px;word-spacing:0px;writing-mode:lr-tb;text-anchor:start;fill:#000000;fill-opacity:1;stroke:none;stroke-width:0.26458332"
         x="220.41473"
         y="293.10287"
         id="text4597"><tspan
           sodipodi:role="line"
           id="tspan4595"
           x="220.41473"
           y="293.10287">@MicheleTobias</tspan></text>
      <path
         inkscape:connector-curvature="0"
         class="cls-2"
         d="m 213.66816,294.57503 c 3.53883,0 5.47441,-2.93189 5.47441,-5.47442 0,-0.0833 0,-0.16618 -0.005,-0.2487 a 3.9146944,3.9146944 0 0 0 0.95993,-0.99593 3.8404217,3.8404217 0 0 1 -1.1051,0.30272 1.930714,1.930714 0 0 0 0.84589,-1.0642 3.8558014,3.8558014 0 0 1 -1.22175,0.46701 1.9258375,1.9258375 0 0 0 -3.27887,1.75479 5.4624165,5.4624165 0 0 1 -3.96534,-2.01024 1.9254624,1.9254624 0 0 0 0.59568,2.56841 1.9097076,1.9097076 0 0 1 -0.87327,-0.24082 c 0,0.008 0,0.0161 0,0.0244 a 1.9247123,1.9247123 0 0 0 1.54361,1.88608 1.920961,1.920961 0 0 1 -0.86877,0.033 1.9262126,1.9262126 0 0 0 1.79755,1.33615 3.8606779,3.8606779 0 0 1 -2.38948,0.82525 3.9165699,3.9165699 0 0 1 -0.45802,-0.0278 5.4470369,5.4470369 0 0 0 2.94915,0.86277"
         id="path4599"
         style="stroke-width:0.26458329" />
    </g>
    <text
       transform="translate(0,-68.399983)"
       id="text4605"
       y="288.89273"
       x="6.4102831"
       style="font-style:normal;font-variant:normal;font-weight:normal;font-stretch:normal;font-size:7.05555534px;line-height:1.25;font-family:'Century Gothic';-inkscape-font-specification:'Century Gothic, Normal';font-variant-ligatures:normal;font-variant-caps:normal;font-variant-numeric:normal;font-feature-settings:normal;text-align:start;letter-spacing:0px;word-spacing:0px;writing-mode:lr-tb;text-anchor:start;display:inline;fill:#000000;fill-opacity:1;stroke:none;stroke-width:0.26458332"
       xml:space="preserve"><tspan
         sodipodi:role="line"
         id="tspan4635"
         x="6.4102831"
         y="288.89273">Michele Tobias, PhD</tspan></text>
    <text
       id="text4605-3"
       y="83.706474"
       x="32.685379"
       style="font-style:normal;font-variant:normal;font-weight:normal;font-stretch:normal;font-size:19.75555611px;line-height:1.25;font-family:'Century Gothic';-inkscape-font-specification:'Century Gothic, Normal';font-variant-ligatures:normal;font-variant-caps:normal;font-variant-numeric:normal;font-feature-settings:normal;text-align:start;letter-spacing:0px;word-spacing:0px;writing-mode:lr-tb;text-anchor:start;display:inline;fill:#000000;fill-opacity:1;stroke:none;stroke-width:0.26458332"
       xml:space="preserve"><tspan
         sodipodi:role="line"
         id="tspan4631"
         x="32.685379"
         y="83.706474">Custom QGIS Symbols </tspan><tspan
         sodipodi:role="line"
         id="tspan4633"
         x="32.685379"
         y="108.40092">with Inkscape</tspan></text>
    <text
       xml:space="preserve"
       style="font-style:normal;font-variant:normal;font-weight:normal;font-stretch:normal;font-size:8.46666622px;line-height:1.25;font-family:'Century Gothic';-inkscape-font-specification:'Century Gothic, Normal';font-variant-ligatures:normal;font-variant-caps:normal;font-variant-numeric:normal;font-feature-settings:normal;text-align:start;letter-spacing:0px;word-spacing:0px;writing-mode:lr-tb;text-anchor:start;display:inline;fill:#000000;fill-opacity:1;stroke:none;stroke-width:0.26458332"
       x="32.032188"
       y="131.0638"
       id="text4639"><tspan
         sodipodi:role="line"
         id="tspan4643"
         x="32.032188"
         y="131.0638">FOSS4G 2017 - Boston - August 14-18</tspan></text>
  </g>
  <g
     inkscape:label="Banner"
     inkscape:groupmode="layer"
     id="layer1"
     transform="translate(0,-68.399983)"
     style="display:inline">
    <g
       id="g4517"
       transform="translate(0,18.520839)">
      <rect
         y="272.02872"
         x="0"
         height="3.6170919"
         width="304.79999"
         id="rect4496"
         style="opacity:1;fill:#d7eef4;fill-opacity:1;stroke:none;stroke-width:0.70555556;stroke-miterlimit:4;stroke-dasharray:none;stroke-dashoffset:0" />
      <rect
         style="opacity:1;fill:#d7f4ee;fill-opacity:1;stroke:none;stroke-width:0.70555556;stroke-miterlimit:4;stroke-dasharray:none;stroke-dashoffset:0"
         id="rect4507"
         width="304.79999"
         height="3.6170919"
         x="0"
         y="268.41162" />
      <rect
         style="opacity:1;fill:#fff6d5;fill-opacity:1;stroke:none;stroke-width:0.70555556;stroke-miterlimit:4;stroke-dasharray:none;stroke-dashoffset:0"
         id="rect4509"
         width="304.79999"
         height="3.6170919"
         x="0"
         y="264.79453" />
      <rect
         y="261.17743"
         x="0"
         height="3.6170919"
         width="304.79999"
         id="rect4511"
         style="opacity:1;fill:#ffd5d5;fill-opacity:1;stroke:none;stroke-width:0.70555556;stroke-miterlimit:4;stroke-dasharray:none;stroke-dashoffset:0" />
    </g>
    <g
       id="g4534"
       transform="translate(28.575012,-3.8325735)">
      <text
         id="text4521"
         y="293.10287"
         x="220.41473"
         style="font-style:normal;font-variant:normal;font-weight:normal;font-stretch:normal;font-size:6.3499999px;line-height:1.25;font-family:'Century Gothic';-inkscape-font-specification:'Century Gothic, Normal';font-variant-ligatures:normal;font-variant-caps:normal;font-variant-numeric:normal;font-feature-settings:normal;text-align:start;letter-spacing:0px;word-spacing:0px;writing-mode:lr-tb;text-anchor:start;fill:#000000;fill-opacity:1;stroke:none;stroke-width:0.26458332"
         xml:space="preserve"><tspan
           y="293.10287"
           x="220.41473"
           id="tspan4529"
           sodipodi:role="line">@MicheleTobias</tspan></text>
      <path
         style="stroke-width:0.26458329"
         id="path10"
         d="m 213.66816,294.57503 c 3.53883,0 5.47441,-2.93189 5.47441,-5.47442 0,-0.0833 0,-0.16618 -0.005,-0.2487 a 3.9146944,3.9146944 0 0 0 0.95993,-0.99593 3.8404217,3.8404217 0 0 1 -1.1051,0.30272 1.930714,1.930714 0 0 0 0.84589,-1.0642 3.8558014,3.8558014 0 0 1 -1.22175,0.46701 1.9258375,1.9258375 0 0 0 -3.27887,1.75479 5.4624165,5.4624165 0 0 1 -3.96534,-2.01024 1.9254624,1.9254624 0 0 0 0.59568,2.56841 1.9097076,1.9097076 0 0 1 -0.87327,-0.24082 c 0,0.008 0,0.0161 0,0.0244 a 1.9247123,1.9247123 0 0 0 1.54361,1.88608 1.920961,1.920961 0 0 1 -0.86877,0.033 1.9262126,1.9262126 0 0 0 1.79755,1.33615 3.8606779,3.8606779 0 0 1 -2.38948,0.82525 3.9165699,3.9165699 0 0 1 -0.45802,-0.0278 5.4470369,5.4470369 0 0 0 2.94915,0.86277"
         class="cls-2"
         inkscape:connector-curvature="0" />
    </g>
    <text
       xml:space="preserve"
       style="font-style:normal;font-variant:normal;font-weight:normal;font-stretch:normal;font-size:7.05555534px;line-height:1.25;font-family:'Century Gothic';-inkscape-font-specification:'Century Gothic, Normal';font-variant-ligatures:normal;font-variant-caps:normal;font-variant-numeric:normal;font-feature-settings:normal;text-align:start;letter-spacing:0px;word-spacing:0px;writing-mode:lr-tb;text-anchor:start;fill:#000000;fill-opacity:1;stroke:none;stroke-width:0.26458332"
       x="6.4102831"
       y="288.89273"
       id="text4538"><tspan
         sodipodi:role="line"
         id="tspan4536"
         x="6.4102831"
         y="288.89273"
         style="font-style:normal;font-variant:normal;font-weight:normal;font-stretch:normal;font-size:7.05555534px;font-family:'Century Gothic';-inkscape-font-specification:'Century Gothic, Normal';font-variant-ligatures:normal;font-variant-caps:normal;font-variant-numeric:normal;font-feature-settings:normal;text-align:start;writing-mode:lr-tb;text-anchor:start;stroke-width:0.26458332">Custom QGIS Symbols with Inkscape</tspan></text>
  </g>
  <g
     inkscape:groupmode="layer"
     id="layer2"
     inkscape:label="Title 2"
     style="display:none">
    <image
       sodipodi:absref="C:\Users\mmtobias\Documents\GitHub\OpenSourceCartography\Talk\Unicorn.png"
       y="106.26736"
       x="186.61739"
       id="image4493"
       xlink:href="file:///C:/Users/mmtobias/Documents/GitHub/OpenSourceCartography/Talk/Unicorn.png"
       preserveAspectRatio="none"
       height="89.746674"
       width="104.94434" />
    <text
       xml:space="preserve"
       style="font-style:normal;font-variant:normal;font-weight:normal;font-stretch:normal;font-size:16.93333244px;line-height:1.25;font-family:'Century Gothic';-inkscape-font-specification:'Century Gothic, Normal';font-variant-ligatures:normal;font-variant-caps:normal;font-variant-numeric:normal;font-feature-settings:normal;text-align:start;letter-spacing:0px;word-spacing:0px;writing-mode:lr-tb;text-anchor:start;fill:#000000;fill-opacity:1;stroke:none;stroke-width:0.26458332"
       x="14.4322"
       y="98.023094"
       id="text4544"><tspan
         sodipodi:role="line"
         id="tspan4546"
         x="14.4322"
         y="98.023094">or... How to Make a Unicorn Map!</tspan></text>
  </g>
</svg>
