<?xml version="1.0" encoding="UTF-8" standalone="no"?>
<!-- Created with Inkscape (http://www.inkscape.org/) -->

<svg
   xmlns:dc="http://purl.org/dc/elements/1.1/"
   xmlns:cc="http://creativecommons.org/ns#"
   xmlns:rdf="http://www.w3.org/1999/02/22-rdf-syntax-ns#"
   xmlns:svg="http://www.w3.org/2000/svg"
   xmlns="http://www.w3.org/2000/svg"
   xmlns:sodipodi="http://sodipodi.sourceforge.net/DTD/sodipodi-0.dtd"
   xmlns:inkscape="http://www.inkscape.org/namespaces/inkscape"
   width="116.98132mm"
   height="72.128242mm"
   viewBox="0 0 116.98132 72.128242"
   version="1.1"
   id="svg5096"
   inkscape:version="0.92.1 r15371"
   sodipodi:docname="Cloud_Smile.svg">
  <defs
     id="defs5090" />
  <sodipodi:namedview
     id="base"
     pagecolor="#ffffff"
     bordercolor="#666666"
     borderopacity="1.0"
     inkscape:pageopacity="0.0"
     inkscape:pageshadow="2"
     inkscape:zoom="0.75544332"
     inkscape:cx="294.26706"
     inkscape:cy="109.87337"
     inkscape:document-units="mm"
     inkscape:current-layer="layer1"
     showgrid="false"
     fit-margin-top="0"
     fit-margin-left="0"
     fit-margin-right="0"
     fit-margin-bottom="0" />
  <metadata
     id="metadata5093">
    <rdf:RDF>
      <cc:Work
         rdf:about="">
        <dc:format>image/svg+xml</dc:format>
        <dc:type
           rdf:resource="http://purl.org/dc/dcmitype/StillImage" />
        <dc:title></dc:title>
      </cc:Work>
    </rdf:RDF>
  </metadata>
  <g
     inkscape:label="Layer 1"
     inkscape:groupmode="layer"
     id="layer1"
     transform="translate(-27.14184,-105.2673)">
    <path
       style="opacity:1;fill:#d7eef4;fill-opacity:1;stroke:#000000;stroke-width:2.6666667;stroke-miterlimit:3.4545455;stroke-dasharray:none;stroke-dashoffset:0"
       d="m 273.24805,398.52734 a 105.89808,108.54553 0 0 0 -104.47852,91.66797 72.804933,68.833758 0 0 0 -65.51953,68.41797 72.804933,68.833758 0 0 0 72.80469,68.83203 72.804933,68.833758 0 0 0 8.51953,-0.55859 66.848166,68.171889 0 0 0 53.69726,27.69531 66.848166,68.171889 0 0 0 37.16016,-11.56836 70.15748,68.833758 0 0 0 55.5,26.79102 70.15748,68.833758 0 0 0 51.4707,-22.1836 66.848166,68.171889 0 0 0 31.92383,8.28516 66.848166,68.171889 0 0 0 59.45899,-37.16602 66.848166,68.171889 0 0 0 3.41796,0.17383 66.848166,68.171889 0 0 0 66.84766,-68.17187 66.848166,68.171889 0 0 0 -66.84766,-68.17188 66.848166,68.171889 0 0 0 -6.33007,0.36914 97.955724,99.279446 0 0 0 -86.37305,-52.61328 97.955724,99.279446 0 0 0 -31.5918,5.43164 105.89808,108.54553 0 0 0 -79.66015,-37.23047 z"
       transform="scale(0.26458333)"
       id="path5641"
       inkscape:connector-curvature="0" />
    <circle
       style="color:#000000;clip-rule:nonzero;display:inline;overflow:visible;visibility:visible;opacity:1;isolation:auto;mix-blend-mode:normal;color-interpolation:sRGB;color-interpolation-filters:linearRGB;solid-color:#000000;solid-opacity:1;fill:#000000;fill-opacity:1;fill-rule:evenodd;stroke:#000000;stroke-width:0.35277778;stroke-linejoin:bevel;stroke-miterlimit:4;stroke-dasharray:none;stroke-dashoffset:0;stroke-opacity:1;marker:none;color-rendering:auto;image-rendering:auto;shape-rendering:auto;text-rendering:auto;enable-background:accumulate"
       id="path5200"
       cx="64.918564"
       cy="147.31221"
       r="3.2433698"
       transform="rotate(1.5194081)" />
    <circle
       style="color:#000000;clip-rule:nonzero;display:inline;overflow:visible;visibility:visible;opacity:1;isolation:auto;mix-blend-mode:normal;color-interpolation:sRGB;color-interpolation-filters:linearRGB;solid-color:#000000;solid-opacity:1;fill:#000000;fill-opacity:1;fill-rule:evenodd;stroke:#000000;stroke-width:0.35277778;stroke-linejoin:bevel;stroke-miterlimit:4;stroke-dasharray:none;stroke-dashoffset:0;stroke-opacity:1;marker:none;color-rendering:auto;image-rendering:auto;shape-rendering:auto;text-rendering:auto;enable-background:accumulate"
       id="path5200-1-7"
       cx="91.376938"
       cy="147.31221"
       r="3.2433698"
       transform="rotate(1.5194081)" />
    <path
       style="fill:#d28677;fill-opacity:1;stroke:#000000;stroke-width:0.49861965;stroke-linecap:butt;stroke-linejoin:miter;stroke-miterlimit:4;stroke-dasharray:none;stroke-opacity:1"
       d="m 66.921013,153.51957 c 4.781136,-1.29425 10.851956,-0.99687 15.441016,0.23112 7.879888,14.80834 -21.79381,15.07052 -15.441016,-0.23112 z"
       id="path4692"
       inkscape:connector-curvature="0"
       sodipodi:nodetypes="ccc" />
  </g>
</svg>
