<?xml version="1.0" encoding="UTF-8" standalone="no"?>
<!-- Created with Inkscape (http://www.inkscape.org/) -->

<svg
   xmlns:dc="http://purl.org/dc/elements/1.1/"
   xmlns:cc="http://creativecommons.org/ns#"
   xmlns:rdf="http://www.w3.org/1999/02/22-rdf-syntax-ns#"
   xmlns:svg="http://www.w3.org/2000/svg"
   xmlns="http://www.w3.org/2000/svg"
   xmlns:sodipodi="http://sodipodi.sourceforge.net/DTD/sodipodi-0.dtd"
   xmlns:inkscape="http://www.inkscape.org/namespaces/inkscape"
   width="210mm"
   height="297mm"
   viewBox="0 0 210 297"
   version="1.1"
   id="svg4616"
   inkscape:version="0.92.1 r15371"
   sodipodi:docname="Companions.svg">
  <defs
     id="defs4610" />
  <sodipodi:namedview
     id="base"
     pagecolor="#ffffff"
     bordercolor="#666666"
     borderopacity="1.0"
     inkscape:pageopacity="0.0"
     inkscape:pageshadow="2"
     inkscape:zoom="2.2672702"
     inkscape:cx="396.85039"
     inkscape:cy="954.93108"
     inkscape:document-units="mm"
     inkscape:current-layer="layer1"
     showgrid="false"
     inkscape:snap-global="false"
     inkscape:window-width="1440"
     inkscape:window-height="838"
     inkscape:window-x="-8"
     inkscape:window-y="-8"
     inkscape:window-maximized="1" />
  <metadata
     id="metadata4613">
    <rdf:RDF>
      <cc:Work
         rdf:about="">
        <dc:format>image/svg+xml</dc:format>
        <dc:type
           rdf:resource="http://purl.org/dc/dcmitype/StillImage" />
        <dc:title></dc:title>
      </cc:Work>
    </rdf:RDF>
  </metadata>
  <g
     inkscape:label="Layer 1"
     inkscape:groupmode="layer"
     id="layer1">
    <path
       sodipodi:type="star"
       style="color:#000000;clip-rule:nonzero;display:inline;overflow:visible;visibility:visible;opacity:1;isolation:auto;mix-blend-mode:normal;color-interpolation:sRGB;color-interpolation-filters:linearRGB;solid-color:#000000;solid-opacity:1;fill:#fff6d5;fill-opacity:1;fill-rule:evenodd;stroke:#ffcc00;stroke-width:1.76388889;stroke-linejoin:bevel;stroke-miterlimit:4;stroke-dasharray:none;stroke-dashoffset:0;stroke-opacity:1;marker:none;color-rendering:auto;image-rendering:auto;shape-rendering:auto;text-rendering:auto;enable-background:accumulate"
       id="path5161"
       sodipodi:sides="5"
       sodipodi:cx="94.057716"
       sodipodi:cy="97.301094"
       sodipodi:r1="32.634956"
       sodipodi:r2="18.601925"
       sodipodi:arg1="0.67474094"
       sodipodi:arg2="1.3030595"
       inkscape:flatsided="false"
       inkscape:rounded="0.1"
       inkscape:randomized="0"
       d="m 119.54134,117.68799 c -1.2936,1.617 -18.5655,-2.99554 -20.562492,-2.44772 -1.996989,0.54782 -14.497751,13.32769 -16.43535,12.59708 -1.937599,-0.7306 -2.888128,-18.58251 -4.02624,-20.31247 -1.138111,-1.72996 -17.155435,-9.6697 -17.059339,-11.738235 0.0961,-2.068535 16.780537,-8.489085 18.074135,-10.106082 1.293597,-1.616996 3.895109,-19.303889 5.892098,-19.85171 1.996989,-0.54782 13.25907,13.335969 15.196668,14.066573 1.9376,0.730605 19.56275,-2.260761 20.70086,-0.530797 1.13811,1.729963 -8.58598,16.731166 -8.68208,18.799702 -0.0961,2.068539 8.19533,17.906659 6.90174,19.523659 z"
       inkscape:transform-center-x="1.1849792e-006"
       inkscape:transform-center-y="-1.2258405e-006" />
    <g
       id="g5271"
       transform="translate(-27.688953,-35.99564)">
      <path
         id="path5163-3"
         d="m 101.70283,173.7832 a 49.772533,26.837275 0 0 0 -49.613504,25.12095 20.386896,17.143524 0 0 0 -14.558801,16.41399 20.386896,17.143524 0 0 0 20.386868,17.14365 20.386896,17.143524 0 0 0 12.566673,-3.65042 20.386896,17.143526 0 0 0 18.013373,9.13949 20.386896,17.143526 0 0 0 18.251601,-9.55135 20.386896,17.143526 0 0 0 11.4024,2.93832 20.386896,17.143526 0 0 0 10.81278,-2.62051 20.386896,17.143526 0 0 0 17.45062,8.31474 20.386896,17.143526 0 0 0 20.38686,-17.14366 20.386896,17.143526 0 0 0 -15.57062,-16.63723 49.772533,26.837275 0 0 0 0.24443,-2.63085 49.772533,26.837275 0 0 0 -49.77268,-26.83712 z"
         style="color:#000000;clip-rule:nonzero;display:inline;overflow:visible;visibility:visible;opacity:1;isolation:auto;mix-blend-mode:normal;color-interpolation:sRGB;color-interpolation-filters:linearRGB;solid-color:#000000;solid-opacity:1;fill:#005544;fill-opacity:1;fill-rule:evenodd;stroke:#005544;stroke-width:0.70555556;stroke-linejoin:bevel;stroke-miterlimit:4;stroke-dasharray:none;stroke-dashoffset:0;stroke-opacity:1;marker:none;color-rendering:auto;image-rendering:auto;shape-rendering:auto;text-rendering:auto;enable-background:accumulate"
         inkscape:connector-curvature="0" />
      <path
         id="path5163"
         transform="scale(0.26458333)"
         d="m 384.38867,646.81836 a 188.11666,101.43222 0 0 0 -187.51562,94.94531 77.052835,64.794421 0 0 0 -55.02539,62.03711 77.052835,64.794421 0 0 0 77.05273,64.79492 77.052835,64.794421 0 0 0 47.49609,-13.79687 77.052835,64.794429 0 0 0 68.08204,34.54297 77.052835,64.794429 0 0 0 68.98242,-36.09961 77.052835,64.794429 0 0 0 43.0957,11.10547 77.052835,64.794429 0 0 0 40.86719,-9.9043 77.052835,64.794429 0 0 0 65.95508,31.42578 77.052835,64.794429 0 0 0 77.05273,-64.79492 77.052835,64.794429 0 0 0 -58.84961,-62.88086 188.11666,101.43222 0 0 0 0.92383,-9.94336 188.11666,101.43222 0 0 0 -188.11719,-101.43164 z"
         style="color:#000000;clip-rule:nonzero;display:inline;overflow:visible;visibility:visible;opacity:1;isolation:auto;mix-blend-mode:normal;color-interpolation:sRGB;color-interpolation-filters:linearRGB;solid-color:#000000;solid-opacity:1;fill:#d5fff6;fill-opacity:1;fill-rule:evenodd;stroke:#005544;stroke-width:2.66666675;stroke-linejoin:bevel;stroke-miterlimit:4;stroke-dasharray:none;stroke-dashoffset:0;stroke-opacity:1;marker:none;color-rendering:auto;image-rendering:auto;shape-rendering:auto;text-rendering:auto;enable-background:accumulate"
         inkscape:connector-curvature="0" />
      <circle
         transform="rotate(1.519408)"
         r="3.2433698"
         cy="201.47038"
         cx="93.446609"
         id="path5200"
         style="color:#000000;clip-rule:nonzero;display:inline;overflow:visible;visibility:visible;opacity:1;isolation:auto;mix-blend-mode:normal;color-interpolation:sRGB;color-interpolation-filters:linearRGB;solid-color:#000000;solid-opacity:1;fill:#000000;fill-opacity:1;fill-rule:evenodd;stroke:#000000;stroke-width:0.35277778;stroke-linejoin:bevel;stroke-miterlimit:4;stroke-dasharray:none;stroke-dashoffset:0;stroke-opacity:1;marker:none;color-rendering:auto;image-rendering:auto;shape-rendering:auto;text-rendering:auto;enable-background:accumulate" />
      <circle
         transform="rotate(1.519408)"
         r="3.2433698"
         cy="201.47038"
         cx="119.90499"
         id="path5200-1-7"
         style="color:#000000;clip-rule:nonzero;display:inline;overflow:visible;visibility:visible;opacity:1;isolation:auto;mix-blend-mode:normal;color-interpolation:sRGB;color-interpolation-filters:linearRGB;solid-color:#000000;solid-opacity:1;fill:#000000;fill-opacity:1;fill-rule:evenodd;stroke:#000000;stroke-width:0.35277778;stroke-linejoin:bevel;stroke-miterlimit:4;stroke-dasharray:none;stroke-dashoffset:0;stroke-opacity:1;marker:none;color-rendering:auto;image-rendering:auto;shape-rendering:auto;text-rendering:auto;enable-background:accumulate" />
      <path
         sodipodi:nodetypes="ccc"
         inkscape:connector-curvature="0"
         id="path4692"
         d="m 94.002964,208.41512 c 4.781136,-1.29425 10.851956,-0.99687 15.441016,0.23112 7.87989,14.80834 -21.79381,15.07052 -15.441016,-0.23112 z"
         style="fill:#d28677;fill-opacity:1;stroke:#000000;stroke-width:0.49861962;stroke-linecap:butt;stroke-linejoin:miter;stroke-miterlimit:4;stroke-dasharray:none;stroke-opacity:1" />
    </g>
    <path
       style="fill:none;fill-rule:evenodd;stroke:#000000;stroke-width:0.26458332px;stroke-linecap:butt;stroke-linejoin:miter;stroke-opacity:1"
       d="m 91.891428,74.559871 c 2.477686,-24.359429 6.92569,-46.89129 23.541592,-66.2768908 l 14.97094,6.9864808 C 111.09122,30.731136 102.78159,53.228745 96.002525,76.70508 Z"
       id="path5273-5"
       inkscape:connector-curvature="0"
       sodipodi:nodetypes="ccccc" />
    <path
       style="fill:none;fill-rule:evenodd;stroke:#000000;stroke-width:0.26458332px;stroke-linecap:butt;stroke-linejoin:miter;stroke-opacity:1"
       d="M 87.230681,73.040855 C 85.742824,48.600991 86.494508,25.646591 99.762403,3.8325655 L 115.66495,8.3101937 C 99.102021,26.687208 94.533868,50.231295 91.6342,74.494147 Z"
       id="path5273-5-9"
       inkscape:connector-curvature="0"
       sodipodi:nodetypes="ccccc" />
  </g>
</svg>
