<?xml version="1.0" encoding="UTF-8" standalone="no"?>
<!-- Created with Inkscape (http://www.inkscape.org/) -->

<svg
   xmlns:dc="http://purl.org/dc/elements/1.1/"
   xmlns:cc="http://creativecommons.org/ns#"
   xmlns:rdf="http://www.w3.org/1999/02/22-rdf-syntax-ns#"
   xmlns:svg="http://www.w3.org/2000/svg"
   xmlns="http://www.w3.org/2000/svg"
   xmlns:sodipodi="http://sodipodi.sourceforge.net/DTD/sodipodi-0.dtd"
   xmlns:inkscape="http://www.inkscape.org/namespaces/inkscape"
   width="175.04591mm"
   height="88.359474mm"
   viewBox="0 0 175.04591 88.359474"
   version="1.1"
   id="svg5235"
   inkscape:version="0.92.1 r15371"
   sodipodi:docname="Rainbow.svg">
  <defs
     id="defs5229" />
  <sodipodi:namedview
     id="base"
     pagecolor="#ffffff"
     bordercolor="#666666"
     borderopacity="1.0"
     inkscape:pageopacity="0.0"
     inkscape:pageshadow="2"
     inkscape:zoom="2.1765718"
     inkscape:cx="330.79543"
     inkscape:cy="166.97853"
     inkscape:document-units="mm"
     inkscape:current-layer="layer1"
     showgrid="false"
     fit-margin-top="0"
     fit-margin-left="0"
     fit-margin-right="0"
     fit-margin-bottom="0" />
  <metadata
     id="metadata5232">
    <rdf:RDF>
      <cc:Work
         rdf:about="">
        <dc:format>image/svg+xml</dc:format>
        <dc:type
           rdf:resource="http://purl.org/dc/dcmitype/StillImage" />
        <dc:title></dc:title>
      </cc:Work>
    </rdf:RDF>
  </metadata>
  <g
     inkscape:label="Layer 1"
     inkscape:groupmode="layer"
     id="layer1"
     transform="translate(126.07653,-280.7905)">
    <g
       transform="translate(-279.62596,125.56756)"
       id="g5227">
      <g
         transform="matrix(1.1456078,0,0,1.1456078,-34.928676,-30.986972)"
         style="stroke:none;stroke-width:0.87289912"
         id="g5218">
        <path
           style="fill:#ffd5d5;fill-opacity:1;stroke:none;stroke-width:0.23095454px;stroke-linecap:butt;stroke-linejoin:miter;stroke-opacity:1"
           d="m 182.02195,212.81128 c 19.41853,-66.98102 99.41714,-67.06914 116.95721,0 h -18.20788 c -8.99375,-38.05485 -71.02985,-38.81458 -82.73208,0 z"
           id="path5197"
           inkscape:connector-curvature="0"
           sodipodi:nodetypes="ccccc" />
        <path
           sodipodi:nodetypes="ccccc"
           inkscape:connector-curvature="0"
           id="path5208"
           d="m 190.06136,212.62088 c 16.74895,-57.74108 85.74966,-57.81704 100.87839,0 h -15.70474 c -7.75731,-32.80524 -61.26494,-33.46017 -71.35839,0 z"
           style="fill:#fff6d5;fill-opacity:1;stroke:none;stroke-width:0.23095454px;stroke-linecap:butt;stroke-linejoin:miter;stroke-opacity:1" />
        <path
           style="fill:#d7f4ee;fill-opacity:1;stroke:none;stroke-width:0.23095454px;stroke-linecap:butt;stroke-linejoin:miter;stroke-opacity:1"
           d="m 198.64427,212.61768 c 14.09633,-48.55989 72.16907,-48.62377 84.90179,0 h -13.21751 c -6.52874,-27.58901 -51.56211,-28.1398 -60.05702,0 z"
           id="path5210"
           inkscape:connector-curvature="0"
           sodipodi:nodetypes="ccccc" />
        <path
           sodipodi:nodetypes="ccccc"
           inkscape:connector-curvature="0"
           id="path5212"
           d="m 207.88817,212.613 c 10.9091,-37.52824 55.8514,-37.57761 65.7052,0 h -10.22898 c -5.05257,-21.32144 -39.90374,-21.74711 -46.47792,0 z"
           style="fill:#d7eef4;fill-opacity:1;stroke:none;stroke-width:0.23095454px;stroke-linecap:butt;stroke-linejoin:miter;stroke-opacity:1" />
      </g>
      <path
         inkscape:connector-curvature="0"
         id="rect5184"
         d="m 183.50712,202.95608 a 16.074148,17.069893 0 0 0 -15.81867,14.13506 13.086917,13.086917 0 0 0 -0.69919,-0.0351 13.086917,13.086917 0 0 0 -13.08705,13.08706 13.086917,13.086917 0 0 0 13.08705,13.08654 13.086917,13.086917 0 0 0 1.82625,-0.14212 v 0.14212 h 48.44459 1.62729 v -0.11783 a 13.086917,13.086917 0 0 0 11.45925,-12.96871 13.086917,13.086917 0 0 0 -12.69948,-13.06742 16.074148,17.069893 0 0 0 -14.56087,-9.88622 16.074148,17.069893 0 0 0 -7.29258,1.85828 16.074148,17.069893 0 0 0 -12.28659,-6.09162 z"
         style="opacity:1;fill:#d7eef4;fill-opacity:1;stroke:#000000;stroke-width:0.70555556;stroke-miterlimit:4;stroke-dasharray:none;stroke-dashoffset:0" />
      <path
         inkscape:connector-curvature="0"
         style="opacity:1;fill:#d7eef4;fill-opacity:1;stroke:#000000;stroke-width:0.70555556;stroke-miterlimit:4;stroke-dasharray:none;stroke-dashoffset:0"
         d="m 298.63766,202.95608 a 16.074148,17.069893 0 0 1 15.81867,14.13506 13.086917,13.086917 0 0 1 0.69919,-0.0351 13.086917,13.086917 0 0 1 13.08705,13.08706 13.086917,13.086917 0 0 1 -13.08705,13.08654 13.086917,13.086917 0 0 1 -1.82625,-0.14212 v 0.14212 h -48.44459 -1.62729 v -0.11783 a 13.086917,13.086917 0 0 1 -11.45925,-12.96871 13.086917,13.086917 0 0 1 12.69949,-13.06742 16.074148,17.069893 0 0 1 14.56087,-9.88622 16.074148,17.069893 0 0 1 7.29257,1.85828 16.074148,17.069893 0 0 1 12.28659,-6.09162 z"
         id="path5195" />
    </g>
  </g>
</svg>
