<?xml version="1.0" encoding="UTF-8" standalone="no"?>
<!-- Created with Inkscape (http://www.inkscape.org/) -->

<svg
   xmlns:dc="http://purl.org/dc/elements/1.1/"
   xmlns:cc="http://creativecommons.org/ns#"
   xmlns:rdf="http://www.w3.org/1999/02/22-rdf-syntax-ns#"
   xmlns:svg="http://www.w3.org/2000/svg"
   xmlns="http://www.w3.org/2000/svg"
   xmlns:sodipodi="http://sodipodi.sourceforge.net/DTD/sodipodi-0.dtd"
   xmlns:inkscape="http://www.inkscape.org/namespaces/inkscape"
   width="440"
   height="220"
   viewBox="0 0 116.41666 58.208335"
   version="1.1"
   id="svg8"
   inkscape:version="0.92.1 r15371"
   sodipodi:docname="SocialMediaAd.svg"
   inkscape:export-filename="C:\Users\mmtobias\Documents\GitHub\OpenSourceCartography\MichelesPrepFiles\Talk\SocialMediaAd.png"
   inkscape:export-xdpi="100"
   inkscape:export-ydpi="100">
  <defs
     id="defs2" />
  <sodipodi:namedview
     id="base"
     pagecolor="#ffffff"
     bordercolor="#666666"
     borderopacity="1.0"
     inkscape:pageopacity="1"
     inkscape:pageshadow="2"
     inkscape:zoom="1.31"
     inkscape:cx="220"
     inkscape:cy="84.721681"
     inkscape:document-units="mm"
     inkscape:current-layer="layer1"
     showgrid="false"
     units="px"
     inkscape:snap-global="false" />
  <metadata
     id="metadata5">
    <rdf:RDF>
      <cc:Work
         rdf:about="">
        <dc:format>image/svg+xml</dc:format>
        <dc:type
           rdf:resource="http://purl.org/dc/dcmitype/StillImage" />
        <dc:title></dc:title>
      </cc:Work>
    </rdf:RDF>
  </metadata>
  <g
     inkscape:label="Layer 1"
     inkscape:groupmode="layer"
     id="layer1"
     transform="translate(0,-238.79165)"
     style="opacity:1">
    <g
       style="display:inline;stroke-width:0.23851864"
       id="g5755"
       transform="matrix(0.35496818,0,0,0.35496818,-520.97275,177.26321)">
      <path
         style="font-style:normal;font-weight:400;font-size:medium;font-family:'MS Shell Dlg 2';vector-effect:non-scaling-stroke;fill:#d7eef4;fill-opacity:1;fill-rule:nonzero;stroke:none;stroke-width:0.36865202;stroke-linecap:square;stroke-linejoin:bevel"
         inkscape:connector-curvature="0"
         id="path1298"
         d="m 1761.0896,459.82653 c 16.8609,-58.0029 86.3243,-58.08018 101.553,0 h -15.8098 c -7.8084,-32.95353 -61.6737,-33.61195 -71.836,0 h -13.9072" />
      <path
         style="font-style:normal;font-weight:400;font-size:medium;font-family:'MS Shell Dlg 2';vector-effect:non-scaling-stroke;fill:#ffd5d5;fill-opacity:1;fill-rule:nonzero;stroke:none;stroke-width:0.36865202;stroke-linecap:square;stroke-linejoin:bevel"
         inkscape:connector-curvature="0"
         id="path1274"
         d="m 1721.1114,460.13255 c 30.0122,-103.52516 153.6579,-103.66117 180.7676,0 h -28.1422 c -13.8994,-58.81742 -109.7832,-59.99053 -127.8697,0 h -24.7557" />
      <path
         style="font-style:normal;font-weight:400;font-size:medium;font-family:'MS Shell Dlg 2';vector-effect:non-scaling-stroke;fill:#fff6d5;fill-opacity:1;fill-rule:nonzero;stroke:none;stroke-width:0.36865202;stroke-linecap:square;stroke-linejoin:bevel"
         inkscape:connector-curvature="0"
         id="path1282"
         d="m 1733.5364,459.83889 c 25.8871,-89.24391 132.5343,-89.36138 155.9176,0 h -24.2735 c -11.9892,-50.70308 -94.6906,-51.71544 -110.2902,0 h -21.3539" />
      <path
         style="font-style:normal;font-weight:400;font-size:medium;font-family:'MS Shell Dlg 2';vector-effect:non-scaling-stroke;fill:#d7f4ee;fill-opacity:1;fill-rule:nonzero;stroke:none;stroke-width:0.36865202;stroke-linecap:square;stroke-linejoin:bevel"
         inkscape:connector-curvature="0"
         id="path1290"
         d="m 1746.8022,459.83425 c 21.7882,-75.05385 111.5437,-75.15276 131.2237,0 h -20.4281 c -10.0912,-42.64128 -79.6953,-43.4929 -92.8235,0 h -17.9721" />
      <path
         style="font-style:normal;font-weight:400;font-size:medium;font-family:'MS Shell Dlg 2';vector-effect:non-scaling-stroke;fill:#d7eef4;fill-opacity:1;fill-rule:nonzero;stroke:none;stroke-width:0.32179505;stroke-linecap:square;stroke-linejoin:bevel"
         inkscape:connector-curvature="0"
         id="path1306"
         d="m 1734.4766,446.83606 c -10.53,0.0108 -19.5315,8.05436 -21.342,19.07009 -0.313,-0.0243 -0.6274,-0.0391 -0.9431,-0.0472 -9.7515,0 -17.6562,7.90461 -17.6562,17.6562 0,9.75158 7.906,17.65619 17.6562,17.65619 0.8257,-0.007 1.6487,-0.0715 2.4649,-0.19158 v 0.19158 h 65.3578 2.195 v -0.1592 c 8.8247,-1.10629 15.449,-8.60346 15.4612,-17.49699 -0.011,-9.53977 -7.5971,-17.34725 -17.1341,-17.62922 -3.5483,-8.12452 -11.2114,-13.3268 -19.6449,-13.33894 -3.42,0.001 -6.7902,0.8594 -9.8379,2.50805 -4.1135,-5.20229 -10.1806,-8.20952 -16.5769,-8.21896 v 0" />
      <path
         style="font-style:normal;font-weight:400;font-size:medium;font-family:'MS Shell Dlg 2';vector-effect:non-scaling-stroke;fill:#d7eef4;fill-opacity:1;fill-rule:nonzero;stroke:none;stroke-width:0.32179505;stroke-linecap:square;stroke-linejoin:bevel"
         inkscape:connector-curvature="0"
         id="path1314"
         d="m 1889.8045,446.83606 c 10.53,0.0108 19.5301,8.05436 21.3407,19.07009 0.3143,-0.0243 0.6287,-0.0391 0.9444,-0.0472 9.7502,0 17.6562,7.90461 17.6562,17.6562 0,9.75158 -7.906,17.65619 -17.6562,17.65619 -0.8257,-0.007 -1.6487,-0.0715 -2.4649,-0.19158 v 0.19158 h -65.3578 -2.1964 v -0.1592 c -8.8233,-1.10629 -15.449,-8.60346 -15.4597,-17.49699 0.011,-9.53977 7.597,-17.34725 17.134,-17.62922 3.5483,-8.12452 11.2114,-13.3268 19.6449,-13.33894 3.4187,0.001 6.7902,0.8594 9.8379,2.50805 4.1135,-5.20229 10.1806,-8.20952 16.5769,-8.21896 v 0" />
    </g>
    <g
       transform="matrix(0.48104434,0.3351843,-0.33515243,0.48129907,-443.79765,-942.76207)"
       style="display:inline;stroke-width:0.14438376"
       id="g5622">
      <path
         style="font-style:normal;font-weight:400;font-size:medium;font-family:'MS Shell Dlg 2';vector-effect:non-scaling-stroke;fill:#fff6d5;fill-opacity:1;fill-rule:evenodd;stroke:none;stroke-width:0.27426791;stroke-linecap:square;stroke-linejoin:bevel"
         inkscape:connector-curvature="0"
         id="path878"
         d="m 1850.334,1203.9124 c 21.4515,-41.2692 45.1002,-77.9304 88.026,-100.5066 l 21.5331,22.83 c -44.936,13.7578 -75.3791,47.6511 -103.805,84.346 l -5.7541,-6.6694" />
      <path
         style="font-style:normal;font-weight:400;font-size:medium;font-family:'MS Shell Dlg 2';vector-effect:non-scaling-stroke;fill:#ffd5d5;fill-opacity:1;fill-rule:evenodd;stroke:none;stroke-width:0.27426791;stroke-linecap:square;stroke-linejoin:bevel"
         inkscape:connector-curvature="0"
         id="path886"
         d="m 1843.4388,1198.8426 c 14.5066,-44.1913 31.9259,-84.1898 70.6428,-113.4007 l 24.937,19.0538 c -42.1251,20.8327 -66.6956,59.1969 -88.8243,99.9995 l -6.7555,-5.6526" />
      <path
         style="font-style:normal;font-weight:400;font-size:medium;font-family:'MS Shell Dlg 2';vector-effect:non-scaling-stroke;fill:#d7f4ee;fill-opacity:1;fill-rule:evenodd;stroke:none;stroke-width:0.27426791;stroke-linecap:square;stroke-linejoin:bevel"
         inkscape:connector-curvature="0"
         id="path894"
         d="m 1855.1575,1209.0646 c 27.2997,-37.6567 56.0947,-70.4314 101.8791,-86.4338 l 17.9317,25.7539 c -46.4713,6.9849 -81.5771,36.0213 -115.1025,68.1245 l -4.7083,-7.4446" />
      <path
         style="font-style:normal;font-weight:400;font-size:medium;font-family:'MS Shell Dlg 2';vector-effect:non-scaling-stroke;fill:#d7eef4;fill-opacity:1;fill-rule:evenodd;stroke:none;stroke-width:0.27426791;stroke-linecap:square;stroke-linejoin:bevel"
         inkscape:connector-curvature="0"
         id="path902"
         d="m 1859.1434,1215.8479 c 32.5069,-33.2653 65.7794,-61.4832 113.4104,-70.6271 l 13.9783,28.0974 c -46.9938,0.1221 -85.965,23.7191 -123.8175,50.5826 l -3.5712,-8.0529" />
      <path
         style="font-style:normal;font-weight:400;font-size:medium;font-family:'MS Shell Dlg 2';vector-effect:non-scaling-stroke;fill:#fff6d5;fill-opacity:1;fill-rule:evenodd;stroke:none;stroke-width:0.27426764;stroke-linecap:square;stroke-linejoin:bevel"
         inkscape:connector-curvature="0"
         id="path910"
         d="m 1870.5142,1289.1226 c -3.2027,2.2811 -32.3675,-15.115 -36.3009,-15.1506 -3.9335,-0.036 -33.411,16.8229 -36.5724,14.4829 -3.1608,-2.3418 4.3725,-35.4549 3.1913,-39.207 -1.1812,-3.7521 -26.326,-26.5759 -25.076,-30.3065 1.2495,-3.7288 35.07,-6.7975 38.2734,-9.0803 3.2033,-2.2829 17.1412,-33.2497 21.0746,-33.2137 3.9335,0.036 17.3023,31.2522 20.4631,33.5941 3.1608,2.3418 36.9195,6.0275 38.1008,9.7792 1.1812,3.7521 -24.3765,26.1127 -25.6265,29.8433 -1.2495,3.7288 5.6759,36.9757 2.4726,39.2586" />
      <path
         style="font-style:normal;font-weight:400;font-size:medium;font-family:'MS Shell Dlg 2';vector-effect:none;fill:none;fill-rule:evenodd;stroke:#ffcc00;stroke-width:0.483778;stroke-linecap:butt;stroke-linejoin:bevel;stroke-opacity:1"
         inkscape:connector-curvature="0"
         id="path914"
         d="m 1870.5142,1289.1226 c -3.2027,2.2811 -32.3675,-15.115 -36.3009,-15.1506 -3.9335,-0.036 -33.411,16.8229 -36.5724,14.4829 -3.1608,-2.3418 4.3725,-35.4549 3.1913,-39.207 -1.1812,-3.7521 -26.326,-26.5759 -25.076,-30.3065 1.2495,-3.7288 35.07,-6.7975 38.2734,-9.0803 3.2033,-2.2829 17.1412,-33.2497 21.0746,-33.2137 3.9335,0.036 17.3023,31.2522 20.4631,33.5941 3.1608,2.3418 36.9195,6.0275 38.1008,9.7792 1.1812,3.7521 -24.3765,26.1127 -25.6265,29.8433 -1.2495,3.7288 5.6759,36.9757 2.4726,39.2586" />
    </g>
    <g
       id="g4686"
       transform="matrix(3.7476054,1.0428872,-1.0509828,3.776697,100.72423,-781.79932)"
       style="stroke-width:0.2560769">
      <path
         style="font-style:normal;font-weight:400;font-size:medium;font-family:'MS Shell Dlg 2';vector-effect:non-scaling-stroke;fill:#ffffff;fill-opacity:1;fill-rule:nonzero;stroke:none;stroke-width:0.0622548;stroke-linecap:square;stroke-linejoin:bevel"
         inkscape:connector-curvature="0"
         id="path502"
         d="m 68.387252,276.1424 c 2.970796,-2.2388 6.251083,-2.28791 2.13645,-0.13128 4.282619,-0.60291 4.254663,1.69569 0.272279,1.36409 3.351025,2.82299 -0.413045,1.21263 -2.508161,-0.41207 l 0.09943,-0.82074" />
      <path
         style="font-style:normal;font-weight:400;font-size:medium;font-family:'MS Shell Dlg 2';vector-effect:none;fill:none;fill-rule:nonzero;stroke:#000000;stroke-width:0.04392424;stroke-linecap:butt;stroke-linejoin:miter;stroke-miterlimit:4;stroke-opacity:1"
         inkscape:connector-curvature="0"
         id="path506"
         d="m 68.387252,276.1424 c 2.970796,-2.2388 6.251083,-2.28791 2.13645,-0.13128 4.282619,-0.60291 4.254663,1.69569 0.272279,1.36409 3.351025,2.82299 -0.413045,1.21263 -2.508161,-0.41207 l 0.09943,-0.82074" />
      <path
         style="font-style:normal;font-weight:400;font-size:medium;font-family:'MS Shell Dlg 2';vector-effect:non-scaling-stroke;fill:#ffffff;fill-opacity:1;fill-rule:nonzero;stroke:none;stroke-width:0.0622548;stroke-linecap:square;stroke-linejoin:bevel"
         inkscape:connector-curvature="0"
         id="path510"
         d="m 61.308572,276.1424 c -2.970797,-2.2388 -6.251057,-2.28791 -2.136425,-0.13128 -4.282568,-0.60291 -4.254713,1.69569 -0.272135,1.36409 -3.351025,2.82299 0.412851,1.21263 2.507967,-0.41207 l -0.09941,-0.82074" />
      <path
         style="font-style:normal;font-weight:400;font-size:medium;font-family:'MS Shell Dlg 2';vector-effect:none;fill:none;fill-rule:nonzero;stroke:#000000;stroke-width:0.04392424;stroke-linecap:butt;stroke-linejoin:miter;stroke-miterlimit:4;stroke-opacity:1"
         inkscape:connector-curvature="0"
         id="path514"
         d="m 61.308572,276.1424 c -2.970797,-2.2388 -6.251057,-2.28791 -2.136425,-0.13128 -4.282568,-0.60291 -4.254713,1.69569 -0.272135,1.36409 -3.351025,2.82299 0.412851,1.21263 2.507967,-0.41207 l -0.09941,-0.82074" />
      <path
         style="font-style:normal;font-weight:400;font-size:medium;font-family:'MS Shell Dlg 2';vector-effect:non-scaling-stroke;fill:#ffd5d5;fill-opacity:1;fill-rule:evenodd;stroke:none;stroke-width:0.0622548;stroke-linecap:square;stroke-linejoin:bevel"
         inkscape:connector-curvature="0"
         id="path518"
         d="m 69.049726,276.43291 c 0,2.34796 -1.903313,4.25127 -4.251259,4.25127 -2.34793,0 -4.251293,-1.90331 -4.251293,-4.25127 0,-2.34795 1.903363,-4.25126 4.251293,-4.25126 2.347946,0 4.251259,1.90331 4.251259,4.25126" />
      <path
         style="font-style:normal;font-weight:400;font-size:medium;font-family:'MS Shell Dlg 2';vector-effect:none;fill:none;fill-rule:evenodd;stroke:#000000;stroke-width:0.04392424;stroke-linecap:butt;stroke-linejoin:miter;stroke-miterlimit:3.45455003;stroke-opacity:1"
         inkscape:connector-curvature="0"
         id="path522"
         d="m 69.049726,276.43291 c 0,2.34796 -1.903313,4.25127 -4.251259,4.25127 -2.34793,0 -4.251293,-1.90331 -4.251293,-4.25127 0,-2.34795 1.903363,-4.25126 4.251293,-4.25126 2.347946,0 4.251259,1.90331 4.251259,4.25126" />
      <path
         style="font-style:normal;font-weight:400;font-size:medium;font-family:'MS Shell Dlg 2';vector-effect:non-scaling-stroke;fill:#d28677;fill-opacity:1;fill-rule:nonzero;stroke:none;stroke-width:0.0622548;stroke-linecap:square;stroke-linejoin:bevel"
         inkscape:connector-curvature="0"
         id="path526"
         d="m 63.52846,274.51648 c -0.888033,-0.018 -1.560209,0.77722 -1.219782,2.07324 0.248606,0.83046 1.325336,2.03677 2.489789,2.27454 1.164495,-0.23777 2.241224,-1.44408 2.489687,-2.27454 0.495214,-1.88507 -1.151855,-2.71067 -2.489687,-1.51555 -0.417906,-0.37341 -0.866351,-0.54967 -1.270007,-0.55769" />
    </g>
    <g
       style="display:inline;stroke-width:0.38773692"
       id="g5990"
       transform="matrix(0.21827906,0,0,0.21844249,-116.14913,184.29457)">
      <path
         style="font-style:normal;font-weight:400;font-size:medium;font-family:'MS Shell Dlg 2';vector-effect:non-scaling-stroke;fill:#c1bcb8;fill-opacity:1;fill-rule:nonzero;stroke:none;stroke-width:0.83219588;stroke-linecap:square;stroke-linejoin:bevel"
         inkscape:connector-curvature="0"
         id="path402"
         d="m 951.06784,497.3358 3.27867,24.04274 c -28.20053,-10.92676 -26.73032,-32.9756 -3.27867,-24.04274" />
      <path
         style="font-style:normal;font-weight:400;font-size:medium;font-family:'MS Shell Dlg 2';vector-effect:none;fill:none;fill-rule:nonzero;stroke:#000000;stroke-width:0.29358038;stroke-linecap:butt;stroke-linejoin:miter;stroke-miterlimit:4;stroke-opacity:1"
         inkscape:connector-curvature="0"
         id="path406"
         d="m 951.06784,497.3358 3.27867,24.04274 c -28.20053,-10.92676 -26.73032,-32.9756 -3.27867,-24.04274" />
      <path
         style="font-style:normal;font-weight:400;font-size:medium;font-family:'MS Shell Dlg 2';vector-effect:non-scaling-stroke;fill:none;fill-rule:nonzero;stroke:none;stroke-width:0.22018455;stroke-linecap:square;stroke-linejoin:bevel"
         inkscape:connector-curvature="0"
         id="path290"
         d="m 1139.6138,451.59732 c -23.4854,3.34249 -6.8087,45.64377 -45.5784,35.6163 l -1.3555,5.83828 c 0.2385,0.0273 0.4633,0.0471 0.699,0.0733 l 0.6565,8.5334 c 0.7723,0.16127 1.5752,0.31403 2.3947,0.46168 l 0.095,1.28168 c 0.8631,0.3907 1.7246,0.78537 2.5861,1.17947 l 2.6445,5.04724 c 8.0178,5.17841 15.5438,11.17797 27.3975,9.96329 24.1618,-3.41688 14.24,-25.35146 27.1477,-24.65809 -3.3913,-3.44527 -7.0212,-4.98648 -11.283,-1.47135 -0.368,-6.50781 -0.9677,-13.46309 4.807,-19.20029 -3.7974,0.40432 -7.6328,0.67066 -10.6101,3.945 -0.7343,-5.4385 -0.7655,-11.13425 6.8746,-17.89361 -4.6355,-1.30781 -8.9973,-0.87964 -12.7526,3.38735 0.4253,-5.6225 1.481,-10.30629 6.2766,-12.10361" />
      <path
         style="font-style:normal;font-weight:400;font-size:medium;font-family:'MS Shell Dlg 2';vector-effect:none;fill:none;fill-rule:nonzero;stroke:#000000;stroke-width:0.58715951;stroke-linecap:butt;stroke-linejoin:miter;stroke-miterlimit:4;stroke-opacity:1"
         inkscape:connector-curvature="0"
         id="path294"
         d="m 1139.6138,451.59732 c -23.4854,3.34249 -6.8087,45.64377 -45.5784,35.6163 l -1.3555,5.83828 c 0.2385,0.0273 0.4633,0.0471 0.699,0.0733 l 0.6565,8.5334 c 0.7723,0.16127 1.5752,0.31403 2.3947,0.46168 l 0.095,1.28168 c 0.8631,0.3907 1.7246,0.78537 2.5861,1.17947 l 2.6445,5.04724 c 8.0178,5.17841 15.5438,11.17797 27.3975,9.96329 24.1618,-3.41688 14.24,-25.35146 27.1477,-24.65809 -3.3913,-3.44527 -7.0212,-4.98648 -11.283,-1.47135 -0.368,-6.50781 -0.9677,-13.46309 4.807,-19.20029 -3.7974,0.40432 -7.6328,0.67066 -10.6101,3.945 -0.7343,-5.4385 -0.7655,-11.13425 6.8746,-17.89361 -4.6355,-1.30781 -8.9973,-0.87964 -12.7526,3.38735 0.4253,-5.6225 1.481,-10.30629 6.2766,-12.10361" />
      <path
         style="font-style:normal;font-weight:400;font-size:medium;font-family:'MS Shell Dlg 2';vector-effect:non-scaling-stroke;fill:none;fill-rule:nonzero;stroke:none;stroke-width:0.22018455;stroke-linecap:square;stroke-linejoin:bevel"
         inkscape:connector-curvature="0"
         id="path298"
         d="m 1017.1899,381.1535 c -5.016,0.007 -10.1535,0.98696 -15.3092,3.4447 -17.53586,8.87639 -15.94071,28.50258 -15.94071,28.50258 l 9.714,1.38504 c 1.13858,-0.70359 2.3578,-1.34983 3.63892,-1.95064 l 16.57159,-1.98868 17.6472,17.8868 c 1.8563,0.90348 3.6821,1.73939 5.4777,2.51623 l 18.9305,21.39398 c 14.6318,3.26923 30.4697,9.82814 38.1076,-5.97685 -7.1109,-0.46395 -9.8367,-4.93877 -13.5835,-10.22735 4.5424,-2.10567 7.5254,-5.56571 8.6021,-10.19613 -9.2728,5.35503 -12.814,0.0562 -18.3746,-6.5396 4.3516,-1.17379 7.5368,-3.41006 8.9105,-6.91042 -15.6863,-0.81433 -19.9936,-6.28122 -25.6286,-11.333 5.5657,-1.46511 9.6538,-3.46969 11.1825,-6.5998 -8.764,4.78034 -28.2118,-13.43866 -49.946,-13.40686" />
      <path
         style="font-style:normal;font-weight:400;font-size:medium;font-family:'MS Shell Dlg 2';vector-effect:none;fill:none;fill-rule:nonzero;stroke:#000000;stroke-width:0.58715951;stroke-linecap:butt;stroke-linejoin:miter;stroke-miterlimit:4;stroke-opacity:1"
         inkscape:connector-curvature="0"
         id="path302"
         d="m 1017.1899,381.1535 c -5.016,0.007 -10.1535,0.98696 -15.3092,3.4447 -17.53586,8.87639 -15.94071,28.50258 -15.94071,28.50258 l 9.714,1.38504 c 1.13858,-0.70359 2.3578,-1.34983 3.63892,-1.95064 l 16.57159,-1.98868 17.6472,17.8868 c 1.8563,0.90348 3.6821,1.73939 5.4777,2.51623 l 18.9305,21.39398 c 14.6318,3.26923 30.4697,9.82814 38.1076,-5.97685 -7.1109,-0.46395 -9.8367,-4.93877 -13.5835,-10.22735 4.5424,-2.10567 7.5254,-5.56571 8.6021,-10.19613 -9.2728,5.35503 -12.814,0.0562 -18.3746,-6.5396 4.3516,-1.17379 7.5368,-3.41006 8.9105,-6.91042 -15.6863,-0.81433 -19.9936,-6.28122 -25.6286,-11.333 5.5657,-1.46511 9.6538,-3.46969 11.1825,-6.5998 -8.764,4.78034 -28.2118,-13.43866 -49.946,-13.40686" />
      <path
         style="font-style:normal;font-weight:400;font-size:medium;font-family:'MS Shell Dlg 2';vector-effect:non-scaling-stroke;fill:#d7eef4;fill-opacity:1;fill-rule:nonzero;stroke:none;stroke-width:0.83219588;stroke-linecap:square;stroke-linejoin:bevel"
         inkscape:connector-curvature="0"
         id="path306"
         d="m 1101.7565,509.62975 c 8.0185,5.179 15.5434,11.17788 27.3974,9.96308 24.1629,-3.4169 14.2406,-25.34983 27.1484,-24.65658 -4.0157,-4.0801 -8.3641,-5.49021 -13.6976,0.99588 l -31.632,3.73669 -14.6957,-0.50009 5.4795,10.46102" />
      <path
         style="font-style:normal;font-weight:400;font-size:medium;font-family:'MS Shell Dlg 2';vector-effect:none;fill:none;fill-rule:nonzero;stroke:#000000;stroke-width:0.29358038;stroke-linecap:butt;stroke-linejoin:miter;stroke-miterlimit:4;stroke-opacity:1"
         inkscape:connector-curvature="0"
         id="path310"
         d="m 1101.7565,509.62975 c 8.0185,5.179 15.5434,11.17788 27.3974,9.96308 24.1629,-3.4169 14.2406,-25.34983 27.1484,-24.65658 -4.0157,-4.0801 -8.3641,-5.49021 -13.6976,0.99588 l -31.632,3.73669 -14.6957,-0.50009 5.4795,10.46102" />
      <path
         style="font-style:normal;font-weight:400;font-size:medium;font-family:'MS Shell Dlg 2';vector-effect:non-scaling-stroke;fill:#d7f4ee;fill-opacity:1;fill-rule:nonzero;stroke:none;stroke-width:0.83219588;stroke-linecap:square;stroke-linejoin:bevel"
         inkscape:connector-curvature="0"
         id="path314"
         d="m 1096.526,503.40336 c 11.195,5.06095 22.0617,10.72501 37.1115,8.71823 21.7999,-6.54833 3.4341,-25.18671 16.1895,-37.85841 -4.3978,0.46789 -8.8492,0.74262 -11.9549,5.72845 l -41.844,16.6874 0.4979,6.72433" />
      <path
         style="font-style:normal;font-weight:400;font-size:medium;font-family:'MS Shell Dlg 2';vector-effect:none;fill:none;fill-rule:nonzero;stroke:#000000;stroke-width:0.29358038;stroke-linecap:butt;stroke-linejoin:miter;stroke-miterlimit:4;stroke-opacity:1"
         inkscape:connector-curvature="0"
         id="path318"
         d="m 1096.526,503.40336 c 11.195,5.06095 22.0617,10.72501 37.1115,8.71823 21.7999,-6.54833 3.4341,-25.18671 16.1895,-37.85841 -4.3978,0.46789 -8.8492,0.74262 -11.9549,5.72845 l -41.844,16.6874 0.4979,6.72433" />
      <path
         style="font-style:normal;font-weight:400;font-size:medium;font-family:'MS Shell Dlg 2';vector-effect:non-scaling-stroke;fill:#fff6d5;fill-opacity:1;fill-rule:nonzero;stroke:none;stroke-width:0.83219588;stroke-linecap:square;stroke-linejoin:bevel"
         inkscape:connector-curvature="0"
         id="path322"
         d="m 1094.0363,501.66057 c 10.6327,2.21712 26.1268,3.29241 35.1176,-0.99588 23.2164,-14.51965 -0.9573,-24.51707 16.9364,-40.35025 -6.484,-1.82864 -12.4335,-0.26399 -16.9364,10.46102 l -9.4651,16.18947 -26.3994,4.98153 0.7469,9.71411" />
      <path
         style="font-style:normal;font-weight:400;font-size:medium;font-family:'MS Shell Dlg 2';vector-effect:none;fill:none;fill-rule:nonzero;stroke:#000000;stroke-width:0.29358038;stroke-linecap:butt;stroke-linejoin:miter;stroke-miterlimit:4;stroke-opacity:1"
         inkscape:connector-curvature="0"
         id="path326"
         d="m 1094.0363,501.66057 c 10.6327,2.21712 26.1268,3.29241 35.1176,-0.99588 23.2164,-14.51965 -0.9573,-24.51707 16.9364,-40.35025 -6.484,-1.82864 -12.4335,-0.26399 -16.9364,10.46102 l -9.4651,16.18947 -26.3994,4.98153 0.7469,9.71411" />
      <path
         style="font-style:normal;font-weight:400;font-size:medium;font-family:'MS Shell Dlg 2';vector-effect:non-scaling-stroke;fill:#ffd5d5;fill-opacity:1;fill-rule:nonzero;stroke:none;stroke-width:0.83219588;stroke-linecap:square;stroke-linejoin:bevel"
         inkscape:connector-curvature="0"
         id="path330"
         d="m 1092.6798,493.0518 c 59.4115,6.81233 30.0803,-35.13691 46.9351,-41.45344 -23.4847,3.34177 -6.8102,45.643 -45.5786,35.61554 l -1.3565,5.8379" />
      <path
         style="font-style:normal;font-weight:400;font-size:medium;font-family:'MS Shell Dlg 2';vector-effect:none;fill:none;fill-rule:nonzero;stroke:#333333;stroke-width:0.29358038;stroke-linecap:butt;stroke-linejoin:miter;stroke-miterlimit:4;stroke-opacity:1"
         inkscape:connector-curvature="0"
         id="path334"
         d="m 1092.6798,493.0518 c 59.4115,6.81233 30.0803,-35.13691 46.9351,-41.45344 -23.4847,3.34177 -6.8102,45.643 -45.5786,35.61554 l -1.3565,5.8379" />
      <path
         style="font-style:normal;font-weight:400;font-size:medium;font-family:'MS Shell Dlg 2';vector-effect:non-scaling-stroke;fill:#c1bcb8;fill-opacity:1;fill-rule:nonzero;stroke:none;stroke-width:0.83219588;stroke-linecap:square;stroke-linejoin:bevel"
         inkscape:connector-curvature="0"
         id="path338"
         d="m 971.62415,418.7129 22.79424,8.32117 C 975.36534,395.17454 975.18677,394.6766 971.62415,418.7129" />
      <path
         style="font-style:normal;font-weight:400;font-size:medium;font-family:'MS Shell Dlg 2';vector-effect:none;fill:none;fill-rule:nonzero;stroke:#000000;stroke-width:0.29358038;stroke-linecap:butt;stroke-linejoin:miter;stroke-miterlimit:4;stroke-opacity:1"
         inkscape:connector-curvature="0"
         id="path342"
         d="m 971.62415,418.7129 22.79424,8.32117 C 975.36534,395.17454 975.18677,394.6766 971.62415,418.7129" />
      <path
         style="font-style:normal;font-weight:400;font-size:medium;font-family:'MS Shell Dlg 2';vector-effect:non-scaling-stroke;fill:#ffd5d5;fill-opacity:1;fill-rule:nonzero;stroke:none;stroke-width:0.83219588;stroke-linecap:square;stroke-linejoin:bevel"
         inkscape:connector-curvature="0"
         id="path346"
         d="m 995.65465,414.48686 c 20.41125,-12.62019 65.49405,-7.6687 71.48215,-19.92616 -10.7872,5.88513 -37.7575,-23.07262 -65.2558,-9.96093 -17.53579,8.87491 -15.94046,28.50273 -15.94046,28.50273 l 9.71411,1.38436" />
      <path
         style="font-style:normal;font-weight:400;font-size:medium;font-family:'MS Shell Dlg 2';vector-effect:none;fill:none;fill-rule:nonzero;stroke:#000000;stroke-width:0.29358038;stroke-linecap:butt;stroke-linejoin:miter;stroke-miterlimit:4;stroke-opacity:1"
         inkscape:connector-curvature="0"
         id="path350"
         d="m 995.65465,414.48686 c 20.41125,-12.62019 65.49405,-7.6687 71.48215,-19.92616 -10.7872,5.88513 -37.7575,-23.07262 -65.2558,-9.96093 -17.53579,8.87491 -15.94046,28.50273 -15.94046,28.50273 l 9.71411,1.38436" />
      <path
         style="font-style:normal;font-weight:400;font-size:medium;font-family:'MS Shell Dlg 2';vector-effect:non-scaling-stroke;fill:#fff6d5;fill-opacity:1;fill-rule:nonzero;stroke:none;stroke-width:0.83219588;stroke-linecap:square;stroke-linejoin:bevel"
         inkscape:connector-curvature="0"
         id="path354"
         d="m 1024.5459,409.50532 c 22.6626,11.75094 51.9917,15.84177 57.0355,2.98978 -29.8807,-1.55177 -18.4603,-19.99054 -53.6144,-20.27385 -18.1061,-0.14595 -30.16391,6.99905 -34.55522,21.02076 l 31.13412,-3.73669" />
      <path
         style="font-style:normal;font-weight:400;font-size:medium;font-family:'MS Shell Dlg 2';vector-effect:none;fill:none;fill-rule:nonzero;stroke:#000000;stroke-width:0.29358038;stroke-linecap:butt;stroke-linejoin:miter;stroke-miterlimit:4;stroke-opacity:1"
         inkscape:connector-curvature="0"
         id="path358"
         d="m 1024.5459,409.50532 c 22.6626,11.75094 51.9917,15.84177 57.0355,2.98978 -29.8807,-1.55177 -18.4603,-19.99054 -53.6144,-20.27385 -18.1061,-0.14595 -30.16391,6.99905 -34.55522,21.02076 l 31.13412,-3.73669" />
      <path
         style="font-style:normal;font-weight:400;font-size:medium;font-family:'MS Shell Dlg 2';vector-effect:non-scaling-stroke;fill:#d7f4ee;fill-opacity:1;fill-rule:nonzero;stroke:none;stroke-width:0.83219588;stroke-linecap:square;stroke-linejoin:bevel"
         inkscape:connector-curvature="0"
         id="path362"
         d="m 1033.5131,428.4356 c 31.134,15.15495 54.0886,12.32399 57.5334,-2.49185 -22.345,12.9035 -11.2294,-35.92245 -75.9658,-16.18946 l 18.4324,18.68131" />
      <path
         style="font-style:normal;font-weight:400;font-size:medium;font-family:'MS Shell Dlg 2';vector-effect:none;fill:none;fill-rule:nonzero;stroke:#000000;stroke-width:0.29358038;stroke-linecap:butt;stroke-linejoin:miter;stroke-miterlimit:4;stroke-opacity:1"
         inkscape:connector-curvature="0"
         id="path366"
         d="m 1033.5131,428.4356 c 31.134,15.15495 54.0886,12.32399 57.5334,-2.49185 -22.345,12.9035 -11.2294,-35.92245 -75.9658,-16.18946 l 18.4324,18.68131" />
      <path
         style="font-style:normal;font-weight:400;font-size:medium;font-family:'MS Shell Dlg 2';vector-effect:non-scaling-stroke;fill:#d7eef4;fill-opacity:1;fill-rule:nonzero;stroke:none;stroke-width:0.83219588;stroke-linecap:square;stroke-linejoin:bevel"
         inkscape:connector-curvature="0"
         id="path370"
         d="m 1057.9207,452.34527 c 14.6312,3.2688 30.4709,9.82786 38.1074,-5.97742 -19.2544,-1.25773 -6.3144,-31.87026 -68.7414,-28.64224 l 30.634,34.61966" />
      <path
         style="font-style:normal;font-weight:400;font-size:medium;font-family:'MS Shell Dlg 2';vector-effect:none;fill:none;fill-rule:nonzero;stroke:#000000;stroke-width:0.29358038;stroke-linecap:butt;stroke-linejoin:miter;stroke-miterlimit:4;stroke-opacity:1"
         inkscape:connector-curvature="0"
         id="path374"
         d="m 1057.9207,452.34527 c 14.6312,3.2688 30.4709,9.82786 38.1074,-5.97742 -19.2544,-1.25773 -6.3144,-31.87026 -68.7414,-28.64224 l 30.634,34.61966" />
      <path
         style="font-style:normal;font-weight:400;font-size:medium;font-family:'MS Shell Dlg 2';vector-effect:non-scaling-stroke;fill:#c1bcb8;fill-opacity:1;fill-rule:nonzero;stroke:none;stroke-width:0.83219588;stroke-linecap:square;stroke-linejoin:bevel"
         inkscape:connector-curvature="0"
         id="path378"
         d="m 1057.4549,426.51467 -24.0964,-2.87603 c 31.3938,-19.8124 31.778,-20.17513 24.0964,2.87603" />
      <path
         style="font-style:normal;font-weight:400;font-size:medium;font-family:'MS Shell Dlg 2';vector-effect:none;fill:none;fill-rule:nonzero;stroke:#000000;stroke-width:0.29358038;stroke-linecap:butt;stroke-linejoin:miter;stroke-miterlimit:4;stroke-opacity:1"
         inkscape:connector-curvature="0"
         id="path382"
         d="m 1057.4549,426.51467 -24.0964,-2.87603 c 31.3938,-19.8124 31.778,-20.17513 24.0964,2.87603" />
      <path
         style="font-style:normal;font-weight:400;font-size:medium;font-family:'MS Shell Dlg 2';vector-effect:non-scaling-stroke;fill:#c1bcb8;fill-opacity:1;fill-rule:nonzero;stroke:none;stroke-width:0.83219588;stroke-linecap:square;stroke-linejoin:bevel"
         inkscape:connector-curvature="0"
         id="path386"
         d="m 1028.2868,555.05383 23.8947,-4.23463 c -9.7935,28.61434 -31.8831,28.02411 -23.8947,4.23463" />
      <path
         style="font-style:normal;font-weight:400;font-size:medium;font-family:'MS Shell Dlg 2';vector-effect:none;fill:none;fill-rule:nonzero;stroke:#000000;stroke-width:0.29358038;stroke-linecap:butt;stroke-linejoin:miter;stroke-miterlimit:4;stroke-opacity:1"
         inkscape:connector-curvature="0"
         id="path390"
         d="m 1028.2868,555.05383 23.8947,-4.23463 c -9.7935,28.61434 -31.8831,28.02411 -23.8947,4.23463" />
      <path
         style="font-style:normal;font-weight:400;font-size:medium;font-family:'MS Shell Dlg 2';vector-effect:non-scaling-stroke;fill:#c1bcb8;fill-opacity:1;fill-rule:nonzero;stroke:none;stroke-width:0.83219588;stroke-linecap:square;stroke-linejoin:bevel"
         inkscape:connector-curvature="0"
         id="path394"
         d="m 1090.4498,529.68039 -16.5414,17.75626 c 29.3419,7.32958 40.8525,-11.53417 16.5414,-17.75626" />
      <path
         style="font-style:normal;font-weight:400;font-size:medium;font-family:'MS Shell Dlg 2';vector-effect:none;fill:none;fill-rule:nonzero;stroke:#000000;stroke-width:0.29358038;stroke-linecap:butt;stroke-linejoin:miter;stroke-miterlimit:4;stroke-opacity:1"
         inkscape:connector-curvature="0"
         id="path398"
         d="m 1090.4498,529.68039 -16.5414,17.75626 c 29.3419,7.32958 40.8525,-11.53417 16.5414,-17.75626" />
      <path
         style="font-style:normal;font-weight:400;font-size:medium;font-family:'MS Shell Dlg 2';vector-effect:non-scaling-stroke;fill:#ffffff;fill-opacity:1;fill-rule:nonzero;stroke:none;stroke-width:0.83219588;stroke-linecap:square;stroke-linejoin:bevel"
         inkscape:connector-curvature="0"
         id="path410"
         d="m 1081.6243,462.29761 c 22.4051,16.45132 48.7186,88.07945 -33.3319,99.63723 -75.97736,4.30975 -108.74284,-39.26209 -108.74284,-84.8407 0,-45.58076 32.17847,-71.31693 79.23354,-70.04847 51.453,1.3865 40.992,34.53595 62.8412,55.25194" />
      <path
         style="font-style:normal;font-weight:400;font-size:medium;font-family:'MS Shell Dlg 2';vector-effect:none;fill:none;fill-rule:nonzero;stroke:#000000;stroke-width:0.58716077;stroke-linecap:butt;stroke-linejoin:miter;stroke-miterlimit:4;stroke-opacity:1"
         inkscape:connector-curvature="0"
         id="path414"
         d="m 1081.6243,462.29761 c 22.4051,16.45132 48.7186,88.07945 -33.3319,99.63723 -75.97736,4.30975 -108.74284,-39.26209 -108.74284,-84.8407 0,-45.58076 32.17847,-71.31693 79.23354,-70.04847 51.453,1.3865 40.992,34.53595 62.8412,55.25194" />
      <path
         style="font-style:normal;font-weight:400;font-size:medium;font-family:'MS Shell Dlg 2';vector-effect:non-scaling-stroke;fill:#000000;fill-opacity:1;fill-rule:evenodd;stroke:none;stroke-width:0.83219278;stroke-linecap:square;stroke-linejoin:bevel"
         inkscape:connector-curvature="0"
         id="path418"
         d="m 988.27897,428.07069 c -0.26527,2.39995 -2.42588,4.13046 -4.82583,3.86519 -2.39995,-0.26527 -4.13046,-2.42587 -3.86519,-4.82582 0.26527,-2.39996 2.42587,-4.13047 4.82583,-3.8652 2.39995,0.26527 4.13046,2.42588 3.86519,4.82583" />
      <path
         style="font-style:normal;font-weight:400;font-size:medium;font-family:'MS Shell Dlg 2';vector-effect:none;fill:none;fill-rule:evenodd;stroke:#000000;stroke-width:0.22053108;stroke-linecap:butt;stroke-linejoin:miter;stroke-miterlimit:4;stroke-opacity:1"
         inkscape:connector-curvature="0"
         id="path422"
         d="m 988.27897,428.07069 c -0.26527,2.39995 -2.42588,4.13046 -4.82583,3.86519 -2.39995,-0.26527 -4.13046,-2.42587 -3.86519,-4.82582 0.26527,-2.39996 2.42587,-4.13047 4.82583,-3.8652 2.39995,0.26527 4.13046,2.42588 3.86519,4.82583" />
      <path
         style="font-style:normal;font-weight:400;font-size:medium;font-family:'MS Shell Dlg 2';vector-effect:non-scaling-stroke;fill:#000000;fill-opacity:1;fill-rule:evenodd;stroke:none;stroke-width:0.83219278;stroke-linecap:square;stroke-linejoin:bevel"
         inkscape:connector-curvature="0"
         id="path426"
         d="m 1046.938,434.55437 c -0.2652,2.39995 -2.4258,4.13047 -4.8258,3.8652 -2.3999,-0.26527 -4.1304,-2.42588 -3.8652,-4.82583 0.2653,-2.39995 2.4259,-4.13047 4.8259,-3.8652 2.3999,0.26527 4.1304,2.42588 3.8651,4.82583" />
      <path
         style="font-style:normal;font-weight:400;font-size:medium;font-family:'MS Shell Dlg 2';vector-effect:none;fill:none;fill-rule:evenodd;stroke:#000000;stroke-width:0.22053108;stroke-linecap:butt;stroke-linejoin:miter;stroke-miterlimit:4;stroke-opacity:1"
         inkscape:connector-curvature="0"
         id="path430"
         d="m 1046.938,434.55437 c -0.2652,2.39995 -2.4258,4.13047 -4.8258,3.8652 -2.3999,-0.26527 -4.1304,-2.42588 -3.8652,-4.82583 0.2653,-2.39995 2.4259,-4.13047 4.8259,-3.8652 2.3999,0.26527 4.1304,2.42588 3.8651,4.82583" />
      <path
         style="font-style:normal;font-weight:400;font-size:medium;font-family:'MS Shell Dlg 2';vector-effect:non-scaling-stroke;fill:#c1bcb8;fill-opacity:1;fill-rule:nonzero;stroke:none;stroke-width:0.83219588;stroke-linecap:square;stroke-linejoin:bevel"
         inkscape:connector-curvature="0"
         id="path434"
         d="m 996.93599,511.16005 c -3.75816,-26.42083 14.92101,-20.85979 21.55731,-7.22656" />
      <path
         style="font-style:normal;font-weight:400;font-size:medium;font-family:'MS Shell Dlg 2';vector-effect:none;fill:none;fill-rule:nonzero;stroke:#000000;stroke-width:0.31617785;stroke-linecap:butt;stroke-linejoin:miter;stroke-miterlimit:4;stroke-opacity:1"
         inkscape:connector-curvature="0"
         id="path438"
         d="m 996.93599,511.16005 c -3.75816,-26.42083 14.92101,-20.85979 21.55731,-7.22656" />
      <path
         style="font-style:normal;font-weight:400;font-size:medium;font-family:'MS Shell Dlg 2';vector-effect:non-scaling-stroke;fill:#e6c3b3;fill-opacity:1;fill-rule:evenodd;stroke:none;stroke-width:0.65188253;stroke-linecap:square;stroke-linejoin:bevel"
         inkscape:connector-curvature="0"
         id="path442"
         d="m 987.48388,440.9146 c -0.34437,3.1155 -4.1009,5.25835 -8.39015,4.78426 -4.28924,-0.4741 -7.48711,-3.38562 -7.14274,-6.50113 0.34454,-3.11714 4.10107,-5.25998 8.39032,-4.78589 4.28924,0.4741 7.48711,3.38562 7.14257,6.50276" />
      <path
         style="font-style:normal;font-weight:400;font-size:medium;font-family:'MS Shell Dlg 2';vector-effect:none;fill:none;fill-rule:evenodd;stroke:#000000;stroke-width:0.22053121;stroke-linecap:butt;stroke-linejoin:miter;stroke-miterlimit:4;stroke-opacity:1"
         inkscape:connector-curvature="0"
         id="path446"
         d="m 987.48388,440.9146 c -0.34437,3.1155 -4.1009,5.25835 -8.39015,4.78426 -4.28924,-0.4741 -7.48711,-3.38562 -7.14274,-6.50113 0.34454,-3.11714 4.10107,-5.25998 8.39032,-4.78589 4.28924,0.4741 7.48711,3.38562 7.14257,6.50276" />
      <path
         style="font-style:normal;font-weight:400;font-size:medium;font-family:'MS Shell Dlg 2';vector-effect:non-scaling-stroke;fill:#e6c3b3;fill-opacity:1;fill-rule:evenodd;stroke:none;stroke-width:0.65188253;stroke-linecap:square;stroke-linejoin:bevel"
         inkscape:connector-curvature="0"
         id="path450"
         d="m 1052.2652,449.0855 c -0.3443,3.11551 -4.1014,5.2583 -8.3901,4.78426 -4.2887,-0.47404 -7.4871,-3.38562 -7.1428,-6.50113 0.3446,-3.11713 4.1016,-5.25992 8.3904,-4.78588 4.2887,0.47403 7.4871,3.38562 7.1425,6.50275" />
      <path
         style="font-style:normal;font-weight:400;font-size:medium;font-family:'MS Shell Dlg 2';vector-effect:none;fill:none;fill-rule:evenodd;stroke:#000000;stroke-width:0.22053121;stroke-linecap:butt;stroke-linejoin:miter;stroke-miterlimit:4;stroke-opacity:1"
         inkscape:connector-curvature="0"
         id="path454"
         d="m 1052.2652,449.0855 c -0.3443,3.11551 -4.1014,5.2583 -8.3901,4.78426 -4.2887,-0.47404 -7.4871,-3.38562 -7.1428,-6.50113 0.3446,-3.11713 4.1016,-5.25992 8.3904,-4.78588 4.2887,0.47403 7.4871,3.38562 7.1425,6.50275" />
      <path
         style="font-style:normal;font-weight:400;font-size:medium;font-family:'MS Shell Dlg 2';vector-effect:non-scaling-stroke;fill:#d28677;fill-opacity:1;fill-rule:nonzero;stroke:none;stroke-width:0.83219588;stroke-linecap:square;stroke-linejoin:bevel"
         inkscape:connector-curvature="0"
         id="path458"
         d="m 999.86567,436.70955 c 7.63433,-1.19763 17.05223,0.12877 24.02983,2.6013 10.1777,22.87087 -36.10271,18.90452 -24.02983,-2.6013" />
      <path
         style="font-style:normal;font-weight:400;font-size:medium;font-family:'MS Shell Dlg 2';vector-effect:none;fill:none;fill-rule:nonzero;stroke:#000000;stroke-width:0.29358038;stroke-linecap:butt;stroke-linejoin:miter;stroke-miterlimit:4;stroke-opacity:1"
         inkscape:connector-curvature="0"
         id="path462"
         d="m 999.86567,436.70955 c 7.63433,-1.19763 17.05223,0.12877 24.02983,2.6013 10.1777,22.87087 -36.10271,18.90452 -24.02983,-2.6013" />
      <path
         style="font-style:normal;font-weight:400;font-size:medium;font-family:'MS Shell Dlg 2';vector-effect:non-scaling-stroke;fill:#ffe680;fill-opacity:1;fill-rule:nonzero;stroke:none;stroke-width:0.83219397;stroke-linecap:square;stroke-linejoin:bevel"
         inkscape:connector-curvature="0"
         id="path466"
         d="m 1025.5406,409.97654 c -11.538,-34.12862 -6.7024,-33.2462 -17.7603,0.0857 9.071,4.59871 13.1386,2.88565 17.7603,-0.0857" />
      <path
         style="font-style:normal;font-weight:400;font-size:medium;font-family:'MS Shell Dlg 2';vector-effect:none;fill:none;fill-rule:nonzero;stroke:#000000;stroke-width:0.5871594;stroke-linecap:butt;stroke-linejoin:miter;stroke-miterlimit:4;stroke-opacity:1"
         inkscape:connector-curvature="0"
         id="path470"
         d="m 1025.5406,409.97654 c -11.538,-34.12862 -6.7024,-33.2462 -17.7603,0.0857 9.071,4.59871 13.1386,2.88565 17.7603,-0.0857" />
      <path
         style="font-style:normal;font-weight:400;font-size:medium;font-family:'MS Shell Dlg 2';vector-effect:non-scaling-stroke;fill:none;fill-rule:nonzero;stroke:none;stroke-width:0.83219397;stroke-linecap:square;stroke-linejoin:bevel"
         inkscape:connector-curvature="0"
         id="path474"
         d="m 1008.9747,406.72967 c 4.597,-0.0823 9.7933,-2.73442 12.881,-7.36174" />
      <path
         style="font-style:normal;font-weight:400;font-size:medium;font-family:'MS Shell Dlg 2';vector-effect:none;fill:none;fill-rule:nonzero;stroke:#000000;stroke-width:0.2935797;stroke-linecap:butt;stroke-linejoin:miter;stroke-miterlimit:4;stroke-opacity:1"
         inkscape:connector-curvature="0"
         id="path478"
         d="m 1008.9747,406.72967 c 4.597,-0.0823 9.7933,-2.73442 12.881,-7.36174" />
      <path
         style="font-style:normal;font-weight:400;font-size:medium;font-family:'MS Shell Dlg 2';vector-effect:non-scaling-stroke;fill:none;fill-rule:nonzero;stroke:none;stroke-width:0.83219397;stroke-linecap:square;stroke-linejoin:bevel"
         inkscape:connector-curvature="0"
         id="path482"
         d="m 1012.4059,395.00714 c 3.3695,-0.0506 5.7737,-1.75992 7.1634,-3.77128" />
      <path
         style="font-style:normal;font-weight:400;font-size:medium;font-family:'MS Shell Dlg 2';vector-effect:none;fill:none;fill-rule:nonzero;stroke:#000000;stroke-width:0.2935797;stroke-linecap:butt;stroke-linejoin:miter;stroke-miterlimit:4;stroke-opacity:1"
         inkscape:connector-curvature="0"
         id="path486"
         d="m 1012.4059,395.00714 c 3.3695,-0.0506 5.7737,-1.75992 7.1634,-3.77128" />
    </g>
  </g>
  <g
     inkscape:groupmode="layer"
     id="layer2"
     inkscape:label="Text"
     style="display:inline">
    <text
       xml:space="preserve"
       style="font-style:normal;font-variant:normal;font-weight:normal;font-stretch:normal;font-size:10.52398014px;line-height:1.25;font-family:'Century Gothic';-inkscape-font-specification:'Century Gothic, Normal';font-variant-ligatures:normal;font-variant-caps:normal;font-variant-numeric:normal;font-feature-settings:normal;text-align:start;letter-spacing:0px;word-spacing:0px;writing-mode:lr-tb;text-anchor:start;fill:#000000;fill-opacity:1;stroke:none;stroke-width:0.26458329"
       x="1.2844809"
       y="17.968611"
       id="text4639"><tspan
         sodipodi:role="line"
         id="tspan4647"
         x="1.2844809"
         y="17.968611"
         style="stroke-width:0.26458329">Custom QGIS Symbols </tspan><tspan
         sodipodi:role="line"
         id="tspan4649"
         x="1.2844809"
         y="31.123587"
         style="stroke-width:0.26458329">with Inkscape</tspan></text>
    <text
       xml:space="preserve"
       style="font-style:normal;font-variant:normal;font-weight:normal;font-stretch:normal;font-size:5.34917164px;line-height:1.25;font-family:'Century Gothic';-inkscape-font-specification:'Century Gothic, Normal';font-variant-ligatures:normal;font-variant-caps:normal;font-variant-numeric:normal;font-feature-settings:normal;text-align:start;letter-spacing:0px;word-spacing:0px;writing-mode:lr-tb;text-anchor:start;fill:#000000;fill-opacity:1;stroke:none;stroke-width:0.26458332"
       x="0.56393087"
       y="50.992157"
       id="text4653"><tspan
         sodipodi:role="line"
         id="tspan4663"
         x="0.56393087"
         y="50.992157"
         style="stroke-width:0.26458332">Friday • 11:00 • Harborview 2 • FOSS4G 2017</tspan></text>
  </g>
</svg>
